<?xml version="1.0" standalone="no"?>
<!DOCTYPE svg PUBLIC "-//W3C//DTD SVG 20010904//EN"
 "http://www.w3.org/TR/2001/REC-SVG-20010904/DTD/svg10.dtd">
<svg version="1.0" xmlns="http://www.w3.org/2000/svg"
 width="24.000000pt" height="24.000000pt" viewBox="0 0 24.000000 24.000000"
 preserveAspectRatio="xMidYMid meet">
<metadata>
Created by potrace 1.16, written by Peter Selinger 2001-2019
</metadata>
<g transform="translate(0.000000,24.000000) scale(0.002727,-0.002727)"
fill="#000000" stroke="none">
<path d="M4040 8640 c-1269 -119 -2380 -759 -3118 -1797 -396 -558 -646 -1204
-744 -1923 -20 -146 -23 -207 -23 -530 0 -323 3 -384 23 -530 44 -323 113
-611 215 -900 493 -1396 1703 -2450 3151 -2745 337 -68 458 -80 866 -80 323 0
384 3 530 23 323 44 611 113 900 215 1396 493 2450 1703 2745 3151 68 337 80
458 80 866 0 323 -3 384 -23 530 -44 323 -113 611 -215 900 -493 1396 -1704
2450 -3151 2745 -312 63 -444 76 -811 80 -181 2 -373 -1 -425 -5z m1793 -862
c16 -12 17 -88 20 -1038 l2 -1025 579 570 c318 314 585 574 593 579 9 5 25 4
39 -3 l24 -11 0 -1528 c0 -1175 -3 -1531 -12 -1540 -9 -9 -274 -12 -1132 -12
l-1121 0 -18 63 c-52 174 -177 353 -329 468 -380 286 -891 259 -1235 -65 -123
-116 -224 -278 -262 -423 l-12 -43 -377 0 c-399 0 -402 0 -402 46 0 28 3583
3974 3609 3974 9 0 25 -6 34 -12z m-1830 -3743 c182 -38 334 -184 382 -366 30
-113 13 -259 -43 -363 -34 -65 -143 -174 -208 -208 -193 -103 -434 -68 -590
88 -205 204 -201 522 9 721 127 121 280 164 450 128z m-999 -833 c23 -69 96
-193 160 -271 117 -143 280 -249 473 -308 79 -24 104 -26 253 -27 143 -1 176
2 249 22 170 47 306 125 432 251 106 107 161 191 227 354 l12 27 1128 0 c864
0 1131 -3 1140 -12 29 -29 -1 -254 -54 -394 -65 -175 -209 -382 -340 -489
l-44 -36 -103 50 c-564 276 -1173 283 -1660 17 -264 -144 -539 -415 -697 -689
l-45 -77 -215 0 c-685 0 -1259 121 -1730 366 -477 249 -807 612 -911 1003 -26
101 -36 225 -19 246 11 13 113 15 870 15 l858 0 16 -48z m2891 -901 c126 -24
193 -47 379 -127 299 -130 434 -143 611 -59 39 19 92 50 119 69 28 19 51 34
53 33 6 -7 -32 -158 -54 -214 -79 -197 -225 -325 -420 -369 -63 -14 -106 -16
-238 -11 -238 9 -326 28 -587 123 -392 143 -719 136 -1066 -22 -41 -19 -77
-34 -79 -34 -10 0 71 137 118 201 60 82 195 212 272 262 127 84 290 145 442
166 102 14 333 5 450 -18z"/>
</g>
</svg>
