<svg version="1.1" xmlns="http://www.w3.org/2000/svg" viewBox="0 0 1093.3155857449492 409.5" width="1093.3155857449492" height="409.5">
  <!-- svg-source:excalidraw -->
  
  <defs>
    <style class="style-fonts">
      @font-face {
        font-family: "Virgil";
        src: url("https://excalidraw.com/Virgil.woff2");
      }
      @font-face {
        font-family: "Cascadia";
        src: url("https://excalidraw.com/Cascadia.woff2");
      }
    </style>
  </defs>
  <rect x="0" y="0" width="1093.3155857449492" height="409.5" fill="#ffffff"></rect><g transform="translate(88.32682304648682 10) rotate(0 92.5 12.5)"><text x="0" y="18" font-family="Virgil, Segoe UI Emoji" font-size="20px" fill="#000000" text-anchor="start" style="white-space: pre;" direction="ltr">page 1 (home page)</text></g><g stroke-linecap="round" transform="translate(12.326823046486822 49) rotate(0 258 174.5)"><path d="M32 0 M32 0 C145.35 -0.68, 260.85 -1.96, 484 0 M32 0 C130.55 -0.3, 228.51 -0.76, 484 0 M484 0 C505.19 -1.4, 516.93 11.06, 516 32 M484 0 C505.51 -1.14, 516.83 8.72, 516 32 M516 32 C513.44 130.86, 514.4 230.96, 516 317 M516 32 C518.08 94.71, 517.19 158.19, 516 317 M516 317 C516.59 338.6, 506.31 348.84, 484 349 M516 317 C516.85 336.39, 504.03 348.62, 484 349 M484 349 C344.14 349.83, 204.89 350.11, 32 349 M484 349 C319.38 350.83, 154.21 350.77, 32 349 M32 349 C12.4 347.31, -1.11 338.84, 0 317 M32 349 C10.87 349.16, -0.1 336.9, 0 317 M0 317 C-1.09 247.25, -1.3 176.53, 0 32 M0 317 C0.11 226.59, 0.18 136.14, 0 32 M0 32 C0.46 10.95, 11.11 0.02, 32 0 M0 32 C2.3 12.96, 11.09 0.87, 32 0" stroke="#000000" stroke-width="1" fill="none"></path></g><g stroke-linecap="round"><g transform="translate(12.326823046486822 97) rotate(0 258.81745488196606 -0.17684411720044402)"><path d="M0.61 0.78 C86.66 1.05, 429.93 0.8, 515.98 0.57 M-0.52 0.14 C85.91 0.15, 432.05 -1.3, 518.16 -1.25" stroke="#000000" stroke-width="1" fill="none"></path></g></g><mask></mask><g transform="translate(179.32682304648682 60) rotate(0 19.5 12.5)"><text x="0" y="18" font-family="Virgil, Segoe UI Emoji" font-size="20px" fill="#000000" text-anchor="start" style="white-space: pre;" direction="ltr">logo</text></g><g stroke-linecap="round"><g transform="translate(11.326823046486822 132) rotate(0 258.1443402688671 -1.3114964831620455)"><path d="M0.09 0.2 C86.51 -0.3, 431.31 -2.49, 517.62 -2.83 M-1.33 -0.74 C84.98 -1.13, 430.07 -1.78, 516.47 -1.72" stroke="#000000" stroke-width="1" fill="none"></path></g></g><mask></mask><g transform="translate(184.32682304648682 104) rotate(0 115 12.5)"><text x="0" y="18" font-family="Virgil, Segoe UI Emoji" font-size="20px" fill="#000000" text-anchor="start" style="white-space: pre;" direction="ltr">tabs (news tag filter?)</text></g><g stroke-linecap="round" transform="translate(21.326823046486822 156) rotate(0 94 80.5)"><path d="M32 0 M32 0 C63.04 1.47, 99.52 -0.01, 156 0 M32 0 C71.18 1.44, 108.34 1.69, 156 0 M156 0 C177.36 -0.09, 188.95 10.52, 188 32 M156 0 C175.06 0.71, 189.25 9.11, 188 32 M188 32 C187.36 71.06, 186.95 108.9, 188 129 M188 32 C187.53 63.17, 188.91 94.41, 188 129 M188 129 C188.19 150.15, 177.28 161.31, 156 161 M188 129 C189.93 149.1, 177.07 162.35, 156 161 M156 161 C113.98 160.44, 69.58 162.34, 32 161 M156 161 C117.5 160.28, 79.27 160.48, 32 161 M32 161 C8.73 161.66, 0.67 151.19, 0 129 M32 161 C8.74 163.02, 1.65 152.01, 0 129 M0 129 C0.82 94.38, -1.68 60.32, 0 32 M0 129 C0.59 98.16, -0.06 69.13, 0 32 M0 32 C0.68 9.18, 11.8 1.41, 32 0 M0 32 C0.95 8.41, 10.16 0.77, 32 0" stroke="#000000" stroke-width="1" fill="none"></path></g><g transform="translate(38.32682304648682 173) rotate(0 79.5 37.5)"><text x="0" y="18" font-family="Virgil, Segoe UI Emoji" font-size="20px" fill="#000000" text-anchor="start" style="white-space: pre;" direction="ltr">latest news</text><text x="0" y="43" font-family="Virgil, Segoe UI Emoji" font-size="20px" fill="#000000" text-anchor="start" style="white-space: pre;" direction="ltr">with picture and</text><text x="0" y="68" font-family="Virgil, Segoe UI Emoji" font-size="20px" fill="#000000" text-anchor="start" style="white-space: pre;" direction="ltr">some lines</text></g><g stroke-linecap="round" transform="translate(234.32682304648682 157) rotate(0 66.5 36.5)"><path d="M18.25 0 M18.25 0 C54.06 0.33, 94.46 1.57, 114.75 0 M18.25 0 C41.34 -0.87, 64.23 0.71, 114.75 0 M114.75 0 C125.73 0.22, 132.03 7.96, 133 18.25 M114.75 0 C124.88 -1.52, 133.46 8.05, 133 18.25 M133 18.25 C132.67 27.24, 134.51 36.22, 133 54.75 M133 18.25 C132.95 32.57, 132.93 46.16, 133 54.75 M133 54.75 C133.18 67.73, 128.63 72.29, 114.75 73 M133 54.75 C132.26 67.51, 126.87 72.2, 114.75 73 M114.75 73 C86.94 73.28, 63.02 73.55, 18.25 73 M114.75 73 C85.44 72.09, 53.55 72.31, 18.25 73 M18.25 73 C7.91 71.82, -1.79 67.2, 0 54.75 M18.25 73 C4.39 74.08, 2.23 67.93, 0 54.75 M0 54.75 C0.87 43.54, -1.35 37.15, 0 18.25 M0 54.75 C0.04 41.87, -0.33 27.87, 0 18.25 M0 18.25 C-1.48 7.49, 4.18 1.06, 18.25 0 M0 18.25 C2.25 6.49, 7.23 0.26, 18.25 0" stroke="#000000" stroke-width="1" fill="none"></path></g><g stroke-linecap="round" transform="translate(234.82682304648682 238.5) rotate(0 66.5 36.5)"><path d="M18.25 0 M18.25 0 C43.99 -0.88, 70.3 -1.6, 114.75 0 M18.25 0 C50.08 0.51, 81.01 0.11, 114.75 0 M114.75 0 C127.42 0.28, 132.45 6.22, 133 18.25 M114.75 0 C128.46 1.85, 131.43 8.01, 133 18.25 M133 18.25 C132.86 31.19, 131.82 49, 133 54.75 M133 18.25 C133.62 29.33, 133.62 39.98, 133 54.75 M133 54.75 C131.74 66.46, 125.19 71.27, 114.75 73 M133 54.75 C132.65 65.2, 127.02 72.11, 114.75 73 M114.75 73 C92.92 74.99, 67.19 74.16, 18.25 73 M114.75 73 C81.53 72.23, 50.99 73.46, 18.25 73 M18.25 73 C4.18 71.65, 0.02 68.42, 0 54.75 M18.25 73 C6.94 72.26, -0.72 65.45, 0 54.75 M0 54.75 C-0.46 44.66, 1.42 32.13, 0 18.25 M0 54.75 C-0.66 44.28, 0.41 34.05, 0 18.25 M0 18.25 C-0.87 6.2, 5.89 1.65, 18.25 0 M0 18.25 C-0.05 6.58, 6.29 -2.21, 18.25 0" stroke="#000000" stroke-width="1" fill="none"></path></g><g stroke-linecap="round" transform="translate(381.8268230464868 156.5) rotate(0 66.5 36.5)"><path d="M18.25 0 M18.25 0 C38.93 -0.05, 58.36 2.49, 114.75 0 M18.25 0 C52.11 -0.39, 86.36 -0.21, 114.75 0 M114.75 0 C126.53 -1.86, 131.84 7.72, 133 18.25 M114.75 0 C128.4 -2.18, 131.45 6.11, 133 18.25 M133 18.25 C132.51 30.66, 132.91 44.8, 133 54.75 M133 18.25 C133.53 27.4, 132.86 38.86, 133 54.75 M133 54.75 C132.81 66.16, 127.64 74.39, 114.75 73 M133 54.75 C135.19 65.91, 127.05 72.78, 114.75 73 M114.75 73 C78.04 71.29, 39.09 75.17, 18.25 73 M114.75 73 C89.11 73.28, 61.56 72.66, 18.25 73 M18.25 73 C5.74 74.74, -1.34 67.47, 0 54.75 M18.25 73 C6.38 73.34, 2.08 67.63, 0 54.75 M0 54.75 C-0.18 45.55, 1.25 37.33, 0 18.25 M0 54.75 C0.2 43.22, 0.03 32.38, 0 18.25 M0 18.25 C0.98 7.98, 4.39 -1.76, 18.25 0 M0 18.25 C-1.13 7.63, 4.5 -1.58, 18.25 0" stroke="#000000" stroke-width="1" fill="none"></path></g><g stroke-linecap="round" transform="translate(383.8268230464868 238.5) rotate(0 66.5 36.5)"><path d="M18.25 0 M18.25 0 C39.72 -1.97, 65.02 0.88, 114.75 0 M18.25 0 C50.14 0.19, 82.89 0.02, 114.75 0 M114.75 0 C126.31 0.45, 134.27 4.54, 133 18.25 M114.75 0 C126.84 1.79, 132.78 5.22, 133 18.25 M133 18.25 C132.38 30.63, 133.06 44.43, 133 54.75 M133 18.25 C132.12 28.19, 134.06 39.7, 133 54.75 M133 54.75 C134.24 65.48, 127.88 74.94, 114.75 73 M133 54.75 C130.83 67.73, 126.53 75, 114.75 73 M114.75 73 C92.59 74.93, 70.44 72.03, 18.25 73 M114.75 73 C82.53 73.65, 50.81 73.02, 18.25 73 M18.25 73 C6.97 71.53, 0.73 66.12, 0 54.75 M18.25 73 C6.54 72.73, 1.12 69.09, 0 54.75 M0 54.75 C1.67 45.52, -1.06 40.63, 0 18.25 M0 54.75 C-0.68 42.44, -0.69 29.05, 0 18.25 M0 18.25 C0.12 8.01, 5.76 1.13, 18.25 0 M0 18.25 C0.49 6.94, 5.06 0.79, 18.25 0" stroke="#000000" stroke-width="1" fill="none"></path></g><g transform="translate(264.3268230464868 165) rotate(0 53.5 12.5)"><text x="0" y="18" font-family="Virgil, Segoe UI Emoji" font-size="20px" fill="#000000" text-anchor="start" style="white-space: pre;" direction="ltr">other news</text></g><g stroke-linecap="round" transform="translate(14.326823046486822 357) rotate(0 256 13)"><path d="M6.5 0 M6.5 0 C131.04 2.01, 257.18 1.11, 505.5 0 M6.5 0 C134.58 -1.55, 263.34 -1.48, 505.5 0 M505.5 0 C509.51 1.13, 512.42 2.91, 512 6.5 M505.5 0 C508.81 0.79, 514.2 2.34, 512 6.5 M512 6.5 C511.06 9.28, 512.45 12.24, 512 19.5 M512 6.5 C511.98 10.88, 511.5 14.71, 512 19.5 M512 19.5 C510.02 24.59, 511.83 25.75, 505.5 26 M512 19.5 C510.42 22.79, 507.56 25.98, 505.5 26 M505.5 26 C343.61 24.87, 183.3 24.11, 6.5 26 M505.5 26 C378.15 25.38, 249.95 25.37, 6.5 26 M6.5 26 C0.91 24.55, -1.27 22.08, 0 19.5 M6.5 26 C1.02 25.31, 1.29 22.26, 0 19.5 M0 19.5 C-0.76 14.51, -0.55 9.43, 0 6.5 M0 19.5 C-0.26 15.92, -0.09 12.09, 0 6.5 M0 6.5 C-0.72 3.89, 1.97 0.39, 6.5 0 M0 6.5 C-1.96 2.77, 3.74 1.84, 6.5 0" stroke="#000000" stroke-width="1" fill="none"></path></g><g transform="translate(35.32682304648682 356) rotate(0 104 12.5)"><text x="0" y="18" font-family="Virgil, Segoe UI Emoji" font-size="20px" fill="#000000" text-anchor="start" style="white-space: pre;" direction="ltr">copyright, bla bla bla</text></g><g stroke-linecap="round" transform="translate(565.4110438361486 50.5) rotate(0 258 174.5)"><path d="M32 0 M32 0 C151.55 1.04, 270.03 2.32, 484 0 M32 0 C195.63 -0.28, 358.52 -0.25, 484 0 M484 0 C505.32 -1.13, 517.94 8.96, 516 32 M484 0 C506.51 1.89, 514.74 10.08, 516 32 M516 32 C516.31 132.48, 515.74 230.7, 516 317 M516 32 C514.39 92.17, 514.06 154.28, 516 317 M516 317 C517.65 340.24, 504.55 350.08, 484 349 M516 317 C516.92 337.94, 503.88 348.4, 484 349 M484 349 C353.09 348.71, 220.98 347.95, 32 349 M484 349 C367.29 350.38, 250.27 350.72, 32 349 M32 349 C11.37 348.83, -0.27 337.24, 0 317 M32 349 C11.58 348.67, -1.75 339.19, 0 317 M0 317 C-0.11 251.92, -2.1 189.19, 0 32 M0 317 C-0.65 235.46, -0.59 153.85, 0 32 M0 32 C1.95 9.82, 11.41 -1.53, 32 0 M0 32 C-0.06 8.92, 12.85 2.07, 32 0" stroke="#000000" stroke-width="1" fill="none"></path></g><g stroke-linecap="round"><g transform="translate(565.4110438361486 98.5) rotate(0 258.2824771896005 0.49696095641987004)"><path d="M0.08 -0.63 C86 -0.33, 429.54 0.95, 515.81 0.96 M-1.34 1.65 C84.9 1.71, 431.45 -0.46, 517.9 -0.66" stroke="#000000" stroke-width="1" fill="none"></path></g></g><mask></mask><g transform="translate(732.4110438361486 61.5) rotate(0 19.5 12.5)"><text x="0" y="18" font-family="Virgil, Segoe UI Emoji" font-size="20px" fill="#000000" text-anchor="start" style="white-space: pre;" direction="ltr">logo</text></g><g stroke-linecap="round"><g transform="translate(564.4110438361486 133.5) rotate(0 258.77591910474007 -0.808895094320178)"><path d="M-1.19 0.96 C85.26 0.64, 432.19 -2.2, 518.74 -2.58 M0.39 0.42 C86.74 0.3, 432.01 -0.72, 518.18 -1.34" stroke="#000000" stroke-width="1" fill="none"></path></g></g><mask></mask><g transform="translate(569.4110438361486 103.5) rotate(0 191.5 12.5)"><text x="0" y="18" font-family="Virgil, Segoe UI Emoji" font-size="20px" fill="#000000" text-anchor="start" style="white-space: pre;" direction="ltr">tabs are hidden with three lines thing </text></g><g stroke-linecap="round" transform="translate(567.4110438361486 358.5) rotate(0 256 13)"><path d="M6.5 0 M6.5 0 C135.12 0.79, 263.96 0.42, 505.5 0 M6.5 0 C197.36 0.59, 387.93 0.48, 505.5 0 M505.5 0 C510.55 -0.91, 510.46 0.43, 512 6.5 M505.5 0 C508.52 -0.95, 510.86 0.2, 512 6.5 M512 6.5 C513.34 8.68, 512.81 12.4, 512 19.5 M512 6.5 C511.85 10.39, 511.68 14.01, 512 19.5 M512 19.5 C513.01 22.28, 509.27 25.16, 505.5 26 M512 19.5 C511.68 25.24, 509.54 26.25, 505.5 26 M505.5 26 C400.26 26.6, 294.72 27.03, 6.5 26 M505.5 26 C362.72 26.97, 220.89 27.03, 6.5 26 M6.5 26 C0.3 24.81, -0.63 23.58, 0 19.5 M6.5 26 C2.36 24.98, -1.41 25.03, 0 19.5 M0 19.5 C-0.67 16.78, -1.12 13.05, 0 6.5 M0 19.5 C-0.52 16.57, -0.56 13.77, 0 6.5 M0 6.5 C1.47 1.17, 3.39 -0.06, 6.5 0 M0 6.5 C2.24 1.75, 1.95 -2.05, 6.5 0" stroke="#000000" stroke-width="1" fill="none"></path></g><g transform="translate(588.4110438361486 357.5) rotate(0 104 12.5)"><text x="0" y="18" font-family="Virgil, Segoe UI Emoji" font-size="20px" fill="#000000" text-anchor="start" style="white-space: pre;" direction="ltr">copyright, bla bla bla</text></g><g transform="translate(663.3268230464869 19) rotate(0 66 12.5)"><text x="0" y="18" font-family="Virgil, Segoe UI Emoji" font-size="20px" fill="#000000" text-anchor="start" style="white-space: pre;" direction="ltr">mobile version</text></g><g stroke-linecap="round" transform="translate(570.3268230464869 151) rotate(0 253 26.5)"><path d="M13.25 0 M13.25 0 C181.04 1.81, 350.83 1.41, 492.75 0 M13.25 0 C197.13 -1.66, 381.51 -1.3, 492.75 0 M492.75 0 C502.77 0.11, 505.91 2.68, 506 13.25 M492.75 0 C499.35 0.04, 504.54 5, 506 13.25 M506 13.25 C506.31 22.18, 504.82 26.73, 506 39.75 M506 13.25 C505.56 19.98, 506.23 25.45, 506 39.75 M506 39.75 C504.51 49.23, 501.08 54.77, 492.75 53 M506 39.75 C506.22 46.95, 503.78 51.66, 492.75 53 M492.75 53 C322.59 54.32, 151.19 53.64, 13.25 53 M492.75 53 C353.19 54.24, 213.41 54.58, 13.25 53 M13.25 53 C3.04 53.6, 0.94 48.87, 0 39.75 M13.25 53 C3.92 53.43, -0.43 49.43, 0 39.75 M0 39.75 C1.44 32.74, -0.43 24.77, 0 13.25 M0 39.75 C0.25 30.41, 0.79 18.73, 0 13.25 M0 13.25 C-1.01 2.44, 5.64 2, 13.25 0 M0 13.25 C-0.12 3.89, 3.79 0.08, 13.25 0" stroke="#000000" stroke-width="1" fill="none"></path></g><g stroke-linecap="round" transform="translate(568.3268230464869 217.5) rotate(0 253 26.5)"><path d="M13.25 0 M13.25 0 C174.53 0.97, 336.18 -0.27, 492.75 0 M13.25 0 C163.61 -0.12, 314.74 -0.29, 492.75 0 M492.75 0 C503.2 -0.98, 505.99 4.87, 506 13.25 M492.75 0 C500.43 0.82, 506.15 5.92, 506 13.25 M506 13.25 C505.59 24.17, 506.44 30.87, 506 39.75 M506 13.25 C506.88 19.01, 506.24 24.96, 506 39.75 M506 39.75 C504.91 46.67, 501.42 53.84, 492.75 53 M506 39.75 C507.27 46.38, 501.9 54.01, 492.75 53 M492.75 53 C310.07 54.71, 127.39 54.21, 13.25 53 M492.75 53 C312.67 52.44, 132.44 52.58, 13.25 53 M13.25 53 C4.75 51.83, 1.12 48.09, 0 39.75 M13.25 53 C4.1 54.28, 1.4 48.36, 0 39.75 M0 39.75 C0.07 28.15, -1.08 18.21, 0 13.25 M0 39.75 C0.63 32.85, 0.59 24.43, 0 13.25 M0 13.25 C0.69 4.21, 5.56 -0.65, 13.25 0 M0 13.25 C-1.73 2.37, 2.93 -0.88, 13.25 0" stroke="#000000" stroke-width="1" fill="none"></path></g><g transform="translate(809.3268230464869 231.5) rotate(0 12 12.5)"><text x="12" y="18" font-family="Virgil, Segoe UI Emoji" font-size="20px" fill="#000000" text-anchor="middle" style="white-space: pre;" direction="ltr">to</text></g><g stroke-linecap="round" transform="translate(567.3268230464869 288.5) rotate(0 253 26.5)"><path d="M13.25 0 M13.25 0 C168.06 0.56, 321.23 1.29, 492.75 0 M13.25 0 C149.52 1.27, 285.21 1.22, 492.75 0 M492.75 0 C500.6 -0.01, 506.46 3.41, 506 13.25 M492.75 0 C502.4 0.15, 507.5 5.95, 506 13.25 M506 13.25 C507.19 21.81, 504.18 27.62, 506 39.75 M506 13.25 C506.42 21.13, 506.95 27.9, 506 39.75 M506 39.75 C504.09 48.42, 502.42 54.1, 492.75 53 M506 39.75 C503.79 48.9, 502.59 54.88, 492.75 53 M492.75 53 C364.75 54.53, 235.71 54.48, 13.25 53 M492.75 53 C390.91 52.22, 289.24 52.64, 13.25 53 M13.25 53 C3.25 54.12, -0.49 48.31, 0 39.75 M13.25 53 C5.69 54.4, -0.22 50.49, 0 39.75 M0 39.75 C-1.33 31.28, -1.12 24.7, 0 13.25 M0 39.75 C0.29 30.78, -0.7 20.62, 0 13.25 M0 13.25 C-0.2 5.56, 3.77 -1.51, 13.25 0 M0 13.25 C-2.05 2.93, 3.54 1.27, 13.25 0" stroke="#000000" stroke-width="1" fill="none"></path></g><g transform="translate(788.8268230464869 302.5) rotate(0 31.5 12.5)"><text x="31.5" y="18" font-family="Virgil, Segoe UI Emoji" font-size="20px" fill="#000000" text-anchor="middle" style="white-space: pre;" direction="ltr">oldest</text></g><g transform="translate(673.3268230464869 168) rotate(0 85 12.5)"><text x="0" y="18" font-family="Virgil, Segoe UI Emoji" font-size="20px" fill="#000000" text-anchor="start" style="white-space: pre;" direction="ltr">news from latest</text></g></svg>